<svg xmlns="http://www.w3.org/2000/svg" width="600" height="200" viewBox="0 0 600 200">
  <defs>
    <style>
      .cls-1 {
        fill: #fff;
        stroke: #fff;
        stroke-linejoin: round;
        stroke-width: 3px;
        fill-rule: evenodd;
      }
    </style>
  </defs>
  <path id="Alex_Gravante" data-name="Alex Gravante" class="cls-1" d="M302.925,195.286c-4.617,11.907-9.356,24.3-11.907,36.815-7.533,2.551-14.216,5.346-21.628,8.262C280.447,225.3,291.261,209.866,302.925,195.286Zm-11.907,80.8a134.147,134.147,0,0,1,6.561-39.853c3.524-1.337,11.543-3.281,14.459-4.86a2.578,2.578,0,0,0,1.458-2.309c0-1.336-.851-1.944-2.187-1.944-3.524,0-8.87,1.7-12.272,2.552,1.215-4.617,2.43-9.72,3.4-14.337,1.7-7.9,5.468-18.1,5.468-26a1.609,1.609,0,0,0-1.58-1.58c-2.794,0-37.18,48.48-41.675,54.555-3.645,1.458-22.357,9.6-24.908,9.842a1.169,1.169,0,0,0-1.094-.851,1.971,1.971,0,0,0-1.579,1.944c0,1.458,1.093,1.823,2.308,1.823,5.225,0,14.338-3.4,19.441-5.1-4.5,5.832-19.2,23.936-25.273,26.366a10.686,10.686,0,0,1-3.4.121,1.564,1.564,0,0,0-1.215,1.458c0,1.215,2.066,1.458,2.916,1.458,7.412,0,26.488-24.543,31.469-30.983,9.113-3.037,16.889-6.318,26-9.234a97.788,97.788,0,0,0-5.954,33.9c0,5.346.851,11.178,4.5,15.31,0.729,0.85,3.159,3.4,4.252,3.4a2.221,2.221,0,0,0,2.066-2.066c0-.972-2.066-3.645-2.43-5.225A39.078,39.078,0,0,1,291.018,276.085Zm45.566-87.725c2.794,0,5.711,1.822,5.711,4.86,0,8.991-17.254,23.936-23.936,29.4C320.424,214.847,326.742,188.36,336.584,188.36ZM352.5,236.232a1.459,1.459,0,0,0-1.337-1.458c-1.458,0-18.225,23.085-30.011,23.085-5.589,0-7.169-5.346-7.169-9.963,0-6.318,1.094-15.188,3.281-21.02,7.9-6.2,27.824-22.964,27.824-33.656,0-4.86-5.1-8.262-9.6-8.262-13.972,0-21.749,30.5-24.179,40.7a78.78,78.78,0,0,0-1.579,16.889c0,7.047,2.308,18.1,11.3,18.1,10.327,0,25.272-16.038,31.226-23.693A1.734,1.734,0,0,0,352.5,236.232Zm9.114-2.673a1.374,1.374,0,0,1,1.336,1.458c0,4.617-6.318,8.384-9.963,9.963C353.96,241.578,357.484,233.559,361.615,233.559Zm21.992,2.916a1.361,1.361,0,0,0-1.458-1.215,1.277,1.277,0,0,0-1.094.607c-1.093,1.458-1.944,3.281-2.916,4.861C374.251,246.438,364.652,259.2,357,259.2c-3.889,0-5.1-4.739-5.1-8.019a23.691,23.691,0,0,1,.243-2.916c5.468-1.7,14.7-7.169,14.7-13.609a5.739,5.739,0,0,0-6.075-6.075c-9.842,0-16.767,13.852-16.767,22.357,0,6.925,3.523,12.028,10.814,12.028,11.542,0,23.693-16.645,28.553-25.758A1.734,1.734,0,0,0,383.607,236.475Zm16.524,10.935c2.066-2.551,19.805-23.693,19.805-24.422a1.218,1.218,0,0,0-1.215-1.215c-1.093,0-17.253,19.927-19.319,22.478-1.093-4.252-1.093-22.113-6.682-22.113-3.159,0-11.908,13.243-11.908,14.458,0,0.729,1.215,1.458,1.944,1.458,0.608,0,7.534-12.757,9.478-12.757,4.131,0,.729,17.01,2.916,24.179-2.066,2.43-16.768,15.431-16.768,16.889a1.249,1.249,0,0,0,1.337,1.215c1.215,0,14.823-13.366,16.4-15.31,2.551,7.169,6.8,11.422,11.056,17.5,0.729,0.972,3.038,4.252,4.253,4.252a1.506,1.506,0,0,0,1.58-1.458c0-.85-1.215-1.579-1.7-2.308C406.206,262.962,402.44,256.158,400.131,247.41Zm107.653,5.954c0.608-2.309,2.673-13.973,2.673-16.4,0-1.823-1.215-3.281-2.673-3.281a2.348,2.348,0,0,0-1.215.365c-1.458,1.093-1.944,3.037-2.43,4.738-0.122.243-.365,1.459-0.486,1.58-4.86,9.234-9.6,18.711-16.16,26.852-3.766,4.5-9.477,9.963-15.8,9.963-6.683,0-12.393-5.832-14.216-12.879-2.187-8.87-1.215-18.59,1.094-27.338,4.617-18.59,19.075-47.022,41.553-47.022,4.253,0,9.842,1.58,10.693,6.44a11.3,11.3,0,0,1-1.094,6.318c-0.121.365-.972,2.187-1.093,2.552a1.332,1.332,0,0,0,2.065,1.458,13.116,13.116,0,0,0,1.944-3.645c1.215-3.038,1.7-6.926.243-9.963-2.308-4.618-7.9-6.319-13.608-6.319-27.095,0-45.928,33.778-49.452,57.593-0.85,6.318-1.093,13.122.486,19.319,2.552,9.72,9.842,17.86,20.534,17.86,14.459,0,24.665-18.59,30.254-29.646-3.645,18.1-11.907,58.078-36.086,58.078-6.075,0-9.356-3.4-11.786-8.748a46.2,46.2,0,0,1-3.766-12.029c0-.243-0.122-1.215-0.122-1.336a1.636,1.636,0,0,0-1.579-1.216,1.606,1.606,0,0,0-1.7,1.459,71.285,71.285,0,0,0,.607,7.168c1.7,9.72,6.8,20.048,17.861,20.048C493.69,315.33,503.167,275.963,507.784,253.364Zm37.425-32.32c-1.458,5.954-4.982,10.814-4.982,17.132,0,5.832,3.159,9.963,9.113,9.963a16.311,16.311,0,0,0,8.87-2.794c1.579-.972,10.327-7.534,10.327-8.87a1.33,1.33,0,0,0-1.336-1.215c-1.7,0-9.6,9.963-16.646,9.963-1.7,0-3.645-.607-3.645-2.551,0-5.59,2.673-11.908,2.673-17.861,0-2.916-.729-6.2-4.374-6.2-7.776,0-16.525,16.16-19.8,22.357,1.215-4.5,3.28-10.207,3.28-14.824,0-1.944-.607-4.5-3.037-4.5a3.5,3.5,0,0,0-2.43,1.093c-4.01,3.888-9.963,34.264-9.963,41.919,0,1.336.607,2.551,2.187,2.551A2.165,2.165,0,0,0,517.385,266c1.944-3.524,2.794-7.655,4.252-11.421C523.946,248.5,537.676,221.044,545.209,221.044Zm33.536,10.571c2.916,0,5.832,3.766,5.953,6.561-3.28,4.982-11.421,17.861-17.861,17.982,0-.243-0.121-0.486-0.121-0.729C566.716,250.448,572.548,231.615,578.745,231.615Zm3.888,14.459a25.579,25.579,0,0,0-1.094,6.682c0,3.888,1.094,8.262,5.832,8.262,4.253,0,10.207-3.766,13.244-6.682,4.86-4.617,8.384-10.571,11.421-16.525a1.75,1.75,0,0,0,.243-0.85,1.2,1.2,0,0,0-1.215-1.094c-2.065,0-10.692,20.777-21.992,20.777-1.7,0-1.822-.85-1.822-2.43,0-6.925,8.141-19.683,8.141-23.085a2.682,2.682,0,0,0-2.673-2.916c-2.431,0-5.1,5.1-6.076,7.047-1.336-3.767-4.131-7.776-8.626-7.776-10.692,0-19.076,17.618-19.076,26.852,0,3.4,1.7,7.776,5.71,7.776C570.361,262.112,579.352,250.448,582.633,246.074ZM639.861,227a1.375,1.375,0,0,0-1.459-1.337c-9.112,0-21.748,32.927-26.852,32.927-0.972,0-1.093-.972-1.093-1.7,0-8.869,8.5-20.655,8.5-25.88,0-1.579-.85-3.28-2.673-3.28-2.43,0-3.767,3.4-4.739,5.1-3.4,6.075-6.075,13.365-6.075,20.412,0,3.4,1.458,8.262,5.589,8.262,5.954,0,17.74-24.3,22.357-29.4a17.627,17.627,0,0,1,5.832-4.131A1.242,1.242,0,0,0,639.861,227Zm7.046,4.617c2.916,0,5.832,3.766,5.954,6.561-3.281,4.982-11.421,17.861-17.861,17.982,0-.243-0.121-0.486-0.121-0.729C634.879,250.448,640.711,231.615,646.907,231.615Zm3.888,14.459a25.619,25.619,0,0,0-1.093,6.682c0,3.888,1.093,8.262,5.832,8.262,4.253,0,10.206-3.766,13.244-6.682,4.86-4.617,8.383-10.571,11.421-16.525a1.761,1.761,0,0,0,.243-0.85,1.2,1.2,0,0,0-1.215-1.094c-2.066,0-10.692,20.777-21.992,20.777-1.7,0-1.823-.85-1.823-2.43,0-6.925,8.141-19.683,8.141-23.085a2.682,2.682,0,0,0-2.673-2.916c-2.43,0-5.1,5.1-6.075,7.047-1.337-3.767-4.131-7.776-8.627-7.776-10.692,0-19.076,17.618-19.076,26.852,0,3.4,1.7,7.776,5.711,7.776C638.524,262.112,647.515,250.448,650.795,246.074Zm49.816-9.721v0.486c0,3.4-6.925,10.936-6.925,16.646a6.189,6.189,0,0,0,6.439,6.44c10.571,0,19.927-13.487,24.422-21.871a1.72,1.72,0,0,0,.243-0.729,1.351,1.351,0,0,0-2.551-.607c-3.645,4.982-11.3,18.954-18.347,18.954a3.3,3.3,0,0,1-3.159-1.7c0.486-4.5,3.888-7.411,3.888-13.608,0-2.066-.486-6.8-3.4-6.8-5.468,0-20.291,19.926-24.058,24.3,1.823-5.1,8.263-19.2,8.263-23.571,0-1.823-.851-3.524-2.916-3.524-5.347,0-13,25.637-13,30.74,0,1.944.607,4.5,3.037,4.5a3.58,3.58,0,0,0,1.215-.243C677.161,264.3,693.2,239.391,700.611,236.353Zm30.377-25.637c-3.524.243-7.169,0.486-10.693,0.486h-1.336a1.494,1.494,0,0,0-1.337-.85,1.948,1.948,0,0,0-1.822,1.7c0,1.7,3.523,2.187,7.168,2.187,2.917,0,5.833-.365,6.926-0.365-6.075,17.132-15.674,46.657-15.674,65,0,2.187.486,11.179,3.4,11.179a1.715,1.715,0,0,0,1.7-1.458c0-1.094-1.458-1.945-1.458-3.038,0-14.094,14.7-58.2,19.2-71.93h1.215c8.991-.243,17.861-0.607,26.852-0.607a1.348,1.348,0,0,0,1.336-1.337,1.249,1.249,0,0,0-1.336-1.215,82.759,82.759,0,0,0-10.814-.486c-5.711,0-11.786.243-14.945,0.365h-1.215c2.187-6.561,4.739-11.664,3.767-14.337A2.208,2.208,0,0,0,740.1,194.8C736.577,194.8,732.446,206.707,730.988,210.716Zm17.859,22.843a1.375,1.375,0,0,1,1.337,1.458c0,4.617-6.318,8.384-9.963,9.963C741.193,241.578,744.716,233.559,748.847,233.559Zm21.992,2.916a1.361,1.361,0,0,0-1.458-1.215,1.276,1.276,0,0,0-1.093.607c-1.094,1.458-1.944,3.281-2.916,4.861-3.888,5.71-13.487,18.468-21.142,18.468-3.888,0-5.1-4.739-5.1-8.019a23.691,23.691,0,0,1,.243-2.916c5.468-1.7,14.7-7.169,14.7-13.609A5.739,5.739,0,0,0,748,228.577c-9.842,0-16.767,13.852-16.767,22.357,0,6.925,3.523,12.028,10.813,12.028,11.543,0,23.693-16.645,28.553-25.758A1.72,1.72,0,0,0,770.839,236.475Z" transform="translate(-199.5 -150)"/>
</svg>
